<svg xmlns="http://www.w3.org/2000/svg" viewBox="0 0 32 32">
  <title>Firebase</title>
  <path d="M5.8 21.75L8.35 4.25c.1-.85.95-1.4 1.75-1.15L12.5 3.9l-6.7 17.85z" fill="#FFA000"/>
  <path d="M16 30L5.8 21.75 12.5 3.9l2.4-2.65c.5-.55 1.35-.55 1.85 0L19.2 4.5 16 30z" fill="#F57C00"/>
  <path d="M19.2 4.5L16.75 1.25c.5-.55 1.35-.55 1.85 0L21 3.5c.35.4.4 1 .1 1.45L16 30l3.2-25.5z" fill="#FF8F00"/>
  <path d="M16 30l10.2-8.25c.75-.6.75-1.7 0-2.3L19.2 4.5 16 30z" fill="#FFA000"/>
  <path d="M5.8 21.75L16 30l10.2-8.25-6-15L16 12l-4.2-6.1L5.8 21.75z" fill="#FFCA28"/>
</svg> 