<svg xmlns="http://www.w3.org/2000/svg" viewBox="0 0 32 32">
  <title>Git</title>
  <path d="M30.428 14.663L17.337 1.572c-.977-.977-2.56-.977-3.537 0L11.573 3.8l2.531 2.531c1.04-.351 2.233-.117 3.064.714.839.839 1.072 2.042.713 3.09l2.441 2.441c1.048-.359 2.251-.126 3.09.713 1.169 1.169 1.169 3.066 0 4.235-1.169 1.169-3.066 1.169-4.235 0-.881-.881-1.098-2.174-.653-3.255l-2.276-2.276v5.987c.285.141.553.33.785.563 1.169 1.169 1.169 3.066 0 4.235-1.169 1.169-3.066 1.169-4.235 0-1.169-1.169-1.169-3.066 0-4.235.288-.288.618-.513.961-.678v-6.046c-.343-.165-.673-.389-.961-.678-.893-.893-1.106-2.206-.64-3.293L9.426 4.666 1.572 12.52c-.977.977-.977 2.56 0 3.537L14.663 29.15c.977.977 2.56.977 3.537 0L30.428 17.2c.977-.977.977-2.56 0-3.537z" fill="#F05032"/>
</svg> 