<svg xmlns="http://www.w3.org/2000/svg" viewBox="0 0 32 32">
  <title>Google Cloud</title>
  <path d="M19.84 10.51c-.42-2.34-2.5-4.51-5.34-4.51-2.8 0-5.25 2.01-5.25 4.76 0 .17.01.34.03.51-2.28.43-4.01 2.43-4.01 4.83 0 2.69 2.19 4.88 4.88 4.88h9.38c2.21 0 4-1.79 4-4s-1.79-4-4-4c-.69 0-1.34.18-1.9.5-.09-.67-.36-1.31-.79-1.97z" fill="#4285F4"/>
  <path d="M14.5 6c2.84 0 4.92 2.17 5.34 4.51.43-.66.7-1.3.79-1.97C20.16 6.2 17.69 4 14.5 4c-2.84 0-4.92 2.17-5.34 4.51-.43.66-.7 1.3-.79 1.97C8.84 8.2 11.31 6 14.5 6z" fill="#34A853"/>
  <path d="M19.25 20.98H9.88c-2.69 0-4.88-2.19-4.88-4.88 0-2.4 1.73-4.4 4.01-4.83-.02-.17-.03-.34-.03-.51 0-2.75 2.45-4.76 5.25-4.76 2.84 0 4.92 2.17 5.34 4.51.43.66.7 1.3.79 1.97.56-.32 1.21-.5 1.9-.5 2.21 0 4 1.79 4 4s-1.79 4-4 4z" fill="#FBBC04"/>
  <path d="M19.25 12.98c2.21 0 4 1.79 4 4s-1.79 4-4 4h-9.37c-2.69 0-4.88-2.19-4.88-4.88 0-2.4 1.73-4.4 4.01-4.83.43.66.7 1.3.79 1.97-.56-.32-1.21-.5-1.9-.5-2.21 0-4 1.79-4 4s1.79 4 4 4h9.38c2.21 0 4-1.79 4-4s-1.79-4-4-4z" fill="#EA4335"/>
</svg> 