<svg xmlns="http://www.w3.org/2000/svg" viewBox="0 0 32 32">
  <title>MySQL</title>
  <path d="M2 20.5c0-1.5.5-2.8 1.3-3.8.8-1 1.9-1.7 3.2-1.7 1.3 0 2.4.7 3.2 1.7.8 1 1.3 2.3 1.3 3.8s-.5 2.8-1.3 3.8c-.8 1-1.9 1.7-3.2 1.7-1.3 0-2.4-.7-3.2-1.7C2.5 23.3 2 22 2 20.5z" fill="#00758F"/>
  <path d="M12 15h2v10h-2v-10zm4 0h2l2 6 2-6h2v10h-2v-7l-1.5 4h-1l-1.5-4v7h-2v-10z" fill="#00758F"/>
  <path d="M26.5 18.5c-.8 0-1.5.3-2 .8v-.8h-2v6.5c0 1.1-.4 2-1.1 2.6-.7.6-1.6.9-2.6.9-1 0-1.9-.3-2.6-.9-.7-.6-1.1-1.5-1.1-2.6h2c0 .4.2.8.5 1 .3.3.7.4 1.2.4s.9-.1 1.2-.4c.3-.3.5-.6.5-1v-.8c-.5.5-1.2.8-2 .8-1.2 0-2.2-.5-2.9-1.3-.7-.8-1.1-1.8-1.1-3s.4-2.2 1.1-3c.7-.8 1.7-1.3 2.9-1.3.8 0 1.5.3 2 .8v-.8h2v6.5c0 .8.2 1.4.6 1.8.4.4.9.6 1.5.6v2zm-4.5-1c-.5 0-.9-.2-1.2-.6-.3-.4-.5-.9-.5-1.4s.2-1 .5-1.4c.3-.4.7-.6 1.2-.6s.9.2 1.2.6c.3.4.5.9.5 1.4s-.2 1-.5 1.4c-.3.4-.7.6-1.2.6z" fill="#E48E00"/>
  <path d="M28 8c2.2 0 4 1.8 4 4v8c0 2.2-1.8 4-4 4H4c-2.2 0-4-1.8-4-4v-8c0-2.2 1.8-4 4-4h24zm0-2H4C1.8 6 0 7.8 0 10v12c0 2.2 1.8 4 4 4h24c2.2 0 4-1.8 4-4V10c0-2.2-1.8-4-4-4z" fill="#00758F"/>
</svg> 