<svg xmlns="http://www.w3.org/2000/svg" viewBox="0 0 32 32">
  <title>PostgreSQL</title>
  <path d="M23.5594 14.7513C23.824 14.4968 24.0573 14.2131 24.2542 13.9063C24.9948 12.7563 25.3828 11.4688 25.3828 10.125C25.3828 6.9375 22.9453 4.5 19.7578 4.5C18.4141 4.5 17.1266 4.8881 16.0266 5.6563C15.7721 5.8531 15.5448 6.0813 15.3479 6.3359C15.151 6.0813 14.9237 5.8531 14.6692 5.6563C13.5693 4.8881 12.2818 4.5 10.9381 4.5C7.7506 4.5 5.3131 6.9375 5.3131 10.125C5.3131 11.4688 5.7011 12.7563 6.4417 13.9063C6.6386 14.2131 6.8719 14.4968 7.1365 14.7513C6.7216 15.3984 6.4688 16.1641 6.4688 17C6.4688 19.3438 8.1563 21.375 10.5 21.375C11.6719 21.375 12.7188 20.8828 13.4063 20.0625C13.7188 19.6875 13.9375 19.25 14.0625 18.7813C14.1875 19.25 14.4063 19.6875 14.7188 20.0625C15.4063 20.8828 16.4531 21.375 17.625 21.375C19.9688 21.375 21.6563 19.3438 21.6563 17C21.6563 16.1641 21.4034 15.3984 20.9885 14.7513C21.0833 14.7917 21.1771 14.8333 21.2708 14.875C22.1771 15.2813 23.1771 15.5 24.1875 15.5C24.9688 15.5 25.75 15.375 26.5 15.125C27.25 14.875 27.9688 14.5 28.625 14C29.2813 13.5 29.875 12.875 30.375 12.125C30.875 11.375 31.25 10.5 31.5 9.5625C31.75 8.625 31.875 7.625 31.875 6.5625C31.875 5.5 31.75 4.5 31.5 3.5625C31.25 2.625 30.875 1.75 30.375 1C29.875 0.25 29.2813 -0.375 28.625 -0.875C27.9688 -1.375 27.25 -1.75 26.5 -2C25.75 -2.25 24.9688 -2.375 24.1875 -2.375C23.1771 -2.375 22.1771 -2.1563 21.2708 -1.75C21.1771 -1.7083 21.0833 -1.6667 20.9885 -1.625C21.4034 -2.2734 21.6563 -3.0391 21.6563 -3.875C21.6563 -6.2188 19.9688 -8.25 17.625 -8.25C16.4531 -8.25 15.4063 -7.7578 14.7188 -6.9375C14.4063 -6.5625 14.1875 -6.125 14.0625 -5.6563C13.9375 -6.125 13.7188 -6.5625 13.4063 -6.9375C12.7188 -7.7578 11.6719 -8.25 10.5 -8.25C8.1563 -8.25 6.4688 -6.2188 6.4688 -3.875C6.4688 -3.0391 6.7216 -2.2734 7.1365 -1.625C6.8719 -1.8796 6.6386 -2.1634 6.4417 -2.4701C5.7011 -3.6201 5.3131 -4.9076 5.3131 -6.251C5.3131 -9.4385 7.7506 -11.876 10.9381 -11.876C12.2818 -11.876 13.5693 -11.4879 14.6692 -10.7197C14.9237 -10.5229 15.151 -10.2947 15.3479 -10.0401C15.5448 -10.2947 15.7721 -10.5229 16.0266 -10.7197C17.1266 -11.4879 18.4141 -11.876 19.7578 -11.876C22.9453 -11.876 25.3828 -9.4385 25.3828 -6.251C25.3828 -4.9076 24.9948 -3.6201 24.2542 -2.4701C24.0573 -2.1634 23.824 -1.8796 23.5594 -1.625Z" fill="#336791"/>
  <path d="M15.348 6.336C15.5448 6.0814 15.7721 5.8532 16.0266 5.6564C17.1266 4.8882 18.4141 4.5001 19.7578 4.5001C22.9453 4.5001 25.3828 6.9376 25.3828 10.1251C25.3828 11.4689 24.9948 12.7564 24.2542 13.9064C24.0573 14.2132 23.824 14.4969 23.5594 14.7514C23.824 14.4969 24.0573 14.2132 24.2542 13.9064C24.9948 12.7564 25.3828 11.4689 25.3828 10.1251C25.3828 6.9376 22.9453 4.5001 19.7578 4.5001C18.4141 4.5001 17.1266 4.8882 16.0266 5.6564C15.7721 5.8532 15.5448 6.0814 15.348 6.336Z" fill="#336791"/>
</svg> 