<svg xmlns="http://www.w3.org/2000/svg" viewBox="0 0 32 32">
  <title>Spring Boot</title>
  <path d="M21.8537 1.4158C19.0926 0.4737 16.1263 0.4737 13.3653 1.4158L5.4526 4.0631C2.6916 5.0053 0.6105 6.8895 0.6105 9.0421V22.9579C0.6105 25.1105 2.6916 26.9947 5.4526 27.9368L13.3653 30.5842C16.1263 31.5263 19.0926 31.5263 21.8537 30.5842L29.7663 27.9368C32.5274 26.9947 34.6084 25.1105 34.6084 22.9579V9.0421C34.6084 6.8895 32.5274 5.0053 29.7663 4.0631L21.8537 1.4158Z" fill="#6DB33F"/>
  <path d="M17.6095 23.4947C12.7779 23.4947 8.8642 19.5811 8.8642 14.7495C8.8642 13.6863 9.0695 12.6758 9.4379 11.7442C9.4379 11.7442 8.3747 13.6863 8.3747 16.6916C8.3747 19.6968 10.8074 22.1295 13.8126 22.1295C16.8179 22.1295 18.7600 20.0674 18.7600 20.0674C18.2337 21.8947 17.6095 23.4947 17.6095 23.4947Z" fill="white"/>
  <path d="M23.7453 8.5053C23.7453 8.5053 22.6821 10.4474 22.6821 13.4526C22.6821 16.4579 25.1147 18.8905 28.1200 18.8905C31.1253 18.8905 33.0674 16.8284 33.0674 16.8284C32.5411 18.6558 31.9168 20.2558 31.9168 20.2558C27.0853 20.2558 23.1716 16.3421 23.1716 11.5105C23.1716 10.4474 23.3768 9.4368 23.7453 8.5053Z" fill="white"/>
</svg> 